# xmcd CD database file
# Copyright (C) 1993-1998 Ti Kan
#
# Track frame offsets:
# 183
# 13895
# 31270
# 43598
# 54098
# 67555
# 83225
# 107673
# 123353
# 142678
#
# Disc length: 2129 seconds
# Revision: 0
# Processed by: cddbd v1.4b41PL1 Copyright (c) Steve Scherf et al.
# Submitted via: CDSpectrumPro v3.2.327
#
DISCID=6f084f0a
DTITLE=The Mahoots - Sweet Suburban Mothers
DYEAR=1900
DGENRE=
TTITLE0=The Age of Reason
TTITLE1=Happy Dance
TTITLE2=The World According to Her
TTITLE3=Murderee
TTITLE4=Adelaide Driving Away
TTITLE5=Asking Everything
TTITLE6=Ridiculous Things
TTITLE7=Blue in the Face
TTITLE8=The Very Hardest Thing
TTITLE9=Black Humor
EXTD=
EXTT0=
EXTT1=
EXTT2=
EXTT3=
EXTT4=
EXTT5=
EXTT6=
EXTT7=
EXTT8=
EXTT9=
PLAYORDER=
